<svg width="1024" height="1024" viewBox="0 0 1024 1024" fill="none" xmlns="http://www.w3.org/2000/svg">
<rect width="1024" height="1024" rx="142.322" fill="#4766F9"/>
<path d="M562.769 249.865C605.33 258.478 643.838 280.519 675.252 313.706C692.226 331.947 712.24 362.854 716.546 376.788L718.066 382.615H675.505L632.944 382.361L624.837 371.215C613.437 356.014 587.09 337.774 565.303 330.174C538.955 321.053 513.875 319.787 487.527 326.373C458.9 333.72 441.926 344.107 415.072 371.215C384.418 401.869 352.751 418.082 323.363 418.082C309.936 418.082 309.936 416.816 319.816 388.442C343.63 319.533 405.192 265.065 475.874 250.118C499.434 245.051 538.702 244.798 562.769 249.865ZM760.881 458.617V499.151H613.944H467.007V458.617V418.082H613.944H760.881V458.617ZM353.004 503.204C370.231 508.018 385.938 517.138 400.632 530.565L412.032 540.952L441.419 540.192C457.633 539.685 497.661 541.205 530.342 543.486C578.223 546.779 591.903 548.552 601.277 552.606L612.677 557.673L624.331 545.006L635.984 532.085H676.772C703.119 532.085 717.813 533.099 717.813 534.619C717.813 541.205 698.813 573.886 684.626 591.873L668.918 611.634L680.065 605.047C757.081 560.713 761.387 558.686 777.601 558.686C795.335 558.686 806.482 564.766 816.869 579.713C821.682 587.06 822.949 591.873 822.949 605.807C822.949 631.394 819.656 634.688 739.094 683.582C610.65 761.611 595.45 769.211 554.662 775.545C517.675 781.371 493.607 777.825 409.499 754.011L332.737 732.224L272.695 748.691C217.214 763.891 212.147 764.904 206.827 761.358L201 757.558V689.156C201 621.007 201 620.754 206.827 617.207C209.867 615.181 240.014 602.514 273.962 589.087C307.656 575.66 335.27 564.006 335.27 563.499C335.27 562.739 332.483 556.912 329.19 550.326C322.096 536.139 312.469 508.018 312.469 500.924C312.469 496.618 313.736 496.364 325.896 497.884C332.99 498.644 345.404 501.178 353.004 503.204Z" fill="white"/>
<path d="M420.139 567.553C394.045 571.1 376.818 576.673 301.069 606.567L227.601 635.448L226.841 685.103C226.334 724.37 226.841 734.504 229.374 733.49C244.574 728.424 328.176 706.89 332.99 706.89C336.03 706.89 370.738 716.01 410.005 727.157C497.407 751.984 512.354 754.518 544.275 750.464C586.33 745.144 592.663 742.104 719.84 664.582C767.721 635.701 793.562 618.474 795.842 614.167C799.895 606.314 797.868 594.914 791.028 588.833C780.388 579.207 773.801 581.993 678.545 635.701L587.343 687.129L556.942 679.022C458.646 652.422 424.699 642.541 419.632 639.501C412.539 635.195 412.032 625.568 418.365 619.994C422.672 616.194 432.299 615.687 504.248 615.687C581.263 615.687 585.823 615.434 591.903 610.621C599.503 604.541 602.037 595.42 598.743 586.807C594.183 574.646 588.863 573.38 520.208 569.073C450.793 564.766 443.446 564.513 420.139 567.553Z" fill="#4766F9"/>
</svg>
