<?xml version="1.0" standalone="no"?>
<!DOCTYPE svg PUBLIC "-//W3C//DTD SVG 20010904//EN"
 "http://www.w3.org/TR/2001/REC-SVG-20010904/DTD/svg10.dtd">
<svg version="1.0" xmlns="http://www.w3.org/2000/svg"
 width="387.000000pt" height="394.000000pt" viewBox="0 0 387.000000 394.000000"
 preserveAspectRatio="xMidYMid meet">

<g transform="translate(0.000000,394.000000) scale(0.100000,-0.100000)"
fill="#000000" stroke="none">
<path d="M560 3904 c-89 -14 -145 -31 -219 -66 -153 -73 -283 -231 -325 -394
-14 -55 -16 -218 -16 -1481 0 -1263 2 -1425 16 -1474 17 -58 103 -239 119
-251 6 -4 6 -8 1 -8 -5 0 -3 -7 4 -15 7 -8 9 -15 4 -15 -5 0 -3 -4 5 -9 8 -5
16 -17 17 -27 2 -9 9 -21 16 -25 7 -5 9 -9 4 -9 -5 0 0 -10 12 -23 12 -13 20
-26 17 -29 -10 -9 18 -58 32 -58 8 0 11 -4 8 -10 -4 -7 553 -10 1663 -10 1605
0 1670 1 1685 18 10 10 14 22 10 25 -3 4 -1 7 6 7 11 0 41 56 47 87 1 7 11 25
21 40 41 60 136 270 154 343 19 74 19 121 16 1471 -2 1310 -4 1398 -21 1454
-32 106 -85 194 -166 275 -80 81 -150 123 -265 162 l-70 23 -1375 1 c-756 1
-1386 0 -1400 -2z m1578 -890 c168 -34 320 -121 444 -252 67 -72 146 -194 163
-249 l6 -23 -168 0 -168 1 -32 44 c-45 60 -149 132 -235 162 -104 36 -203 41
-307 15 -113 -29 -180 -70 -286 -177 -121 -121 -246 -185 -362 -185 -53 0 -53
5 -14 117 94 272 337 487 616 546 93 20 248 21 343 1z m782 -824 l0 -160 -580
0 -580 0 0 160 0 160 580 0 580 0 0 -160z m-1610 -176 c68 -19 130 -55 188
-108 l45 -41 116 3 c64 2 222 -4 351 -13 189 -13 243 -20 280 -36 l45 -20 46
50 46 51 161 0 c104 0 162 -4 162 -10 0 -26 -75 -155 -131 -226 l-62 -78 44
26 c304 175 321 183 385 183 70 0 114 -24 155 -83 19 -29 24 -48 24 -103 0
-101 -13 -114 -331 -307 -507 -308 -567 -338 -728 -363 -146 -23 -241 -9 -573
85 l-303 86 -237 -65 c-219 -60 -239 -64 -260 -50 l-23 15 0 270 c0 269 0 270
23 284 12 8 131 58 265 111 133 53 242 99 242 101 0 3 -11 26 -24 52 -28 56
-66 167 -66 195 0 17 5 18 53 12 28 -3 77 -13 107 -21z"/>
<path d="M1575 1760 c-103 -14 -171 -36 -470 -154 l-290 -114 -3 -196 c-2
-155 0 -195 10 -191 60 20 390 105 409 105 12 0 149 -36 304 -80 345 -98 404
-108 530 -92 166 21 191 33 693 339 189 114 291 182 300 199 16 31 8 76 -19
100 -42 38 -68 27 -444 -185 l-360 -203 -120 32 c-388 105 -522 144 -542 156
-28 17 -30 55 -5 77 17 15 55 17 339 17 304 0 322 1 346 20 30 24 40 60 27 94
-18 48 -39 53 -310 70 -274 17 -303 18 -395 6z"/>
</g>
</svg>
